<?xml version="1.0" encoding="UTF-8" standalone="no" ?>
<!DOCTYPE svg PUBLIC "-//W3C//DTD SVG 1.1//EN" "http://www.w3.org/Graphics/SVG/1.1/DTD/svg11.dtd">
<svg xmlns="http://www.w3.org/2000/svg" xmlns:xlink="http://www.w3.org/1999/xlink" version="1.1" width="2000" height="200" viewBox="0 0 2000 200" xml:space="preserve">
<desc>Created with Fabric.js 4.6.0</desc>
<defs>
</defs>
<g transform="matrix(0.07 0 0 -0.07 443.26 -151.63)" id="4Uvawb7KMpP1DRd8q0SiD"  >
<path style="stroke: none; stroke-width: 1; stroke-dasharray: none; stroke-linecap: butt; stroke-dashoffset: 0; stroke-linejoin: miter; stroke-miterlimit: 4; fill: rgb(118,57,42); fill-rule: nonzero; opacity: 1;" vector-effect="non-scaling-stroke"  transform=" translate(-8545.96, -6875.85)" d="M 14341.5 6845.85 L 2750.42 6845.85 C 2733.86 6845.85 2720.42 6859.280000000001 2720.42 6875.85 C 2720.42 6892.42 2733.86 6905.85 2750.42 6905.85 L 14341.5 6905.85 C 14358.1 6905.85 14371.5 6892.42 14371.5 6875.85 C 14371.5 6859.280000000001 14358.1 6845.85 14341.5 6845.85" stroke-linecap="round" />
</g>
<g transform="matrix(0.07 0 0 -0.07 1565.31 -151.63)" id="HoPhRkL_1vPIqJrV9YNUZ"  >
<path style="stroke: none; stroke-width: 1; stroke-dasharray: none; stroke-linecap: butt; stroke-dashoffset: 0; stroke-linejoin: miter; stroke-miterlimit: 4; fill: rgb(118,57,42); fill-rule: nonzero; opacity: 1;" vector-effect="non-scaling-stroke"  transform=" translate(-23455.4, -6875.85)" d="M 29252.5 6845.85 L 17658.3 6845.85 C 17641.7 6845.85 17628.3 6859.280000000001 17628.3 6875.85 C 17628.3 6892.42 17641.7 6905.85 17658.3 6905.85 L 29252.5 6905.85 C 29269.1 6905.85 29282.5 6892.42 29282.5 6875.85 C 29282.5 6859.280000000001 29269.1 6845.85 29252.5 6845.85" stroke-linecap="round" />
</g>
<g transform="matrix(0.07 0 0 -0.07 892.44 -151.9)" id="GbVjZnirW_Ci2-lUOSlBd"  >
<path style="stroke: none; stroke-width: 1; stroke-dasharray: none; stroke-linecap: butt; stroke-dashoffset: 0; stroke-linejoin: miter; stroke-miterlimit: 4; fill: rgb(118,57,42); fill-rule: nonzero; opacity: 1;" vector-effect="non-scaling-stroke"  transform=" translate(-14514.55, -6879.43)" d="M 14514.5 7003.42 C 14447 7003.42 14392 6947.8 14392 6879.43 C 14392 6811.070000000001 14447 6755.450000000001 14514.5 6755.450000000001 C 14582.1 6755.450000000001 14637.1 6811.070000000001 14637.1 6879.43 C 14637.1 6947.8 14582.1 7003.42 14514.5 7003.42 z M 14514.5 6695.45 C 14413.9 6695.45 14332 6777.98 14332 6879.429999999999 C 14332 6980.879999999999 14413.9 7063.419999999999 14514.5 7063.419999999999 C 14615.2 7063.419999999999 14697.1 6980.879999999999 14697.1 6879.429999999999 C 14697.1 6777.98 14615.2 6695.45 14514.5 6695.45" stroke-linecap="round" />
</g>
<g transform="matrix(0.07 0 0 -0.07 1116.01 -151.9)" id="RkCiZw2h5ExyF2HXR6tF3"  >
<path style="stroke: none; stroke-width: 1; stroke-dasharray: none; stroke-linecap: butt; stroke-dashoffset: 0; stroke-linejoin: miter; stroke-miterlimit: 4; fill: rgb(118,57,42); fill-rule: nonzero; opacity: 1;" vector-effect="non-scaling-stroke"  transform=" translate(-17485.25, -6879.43)" d="M 17485.2 7003.42 C 17417.600000000002 7003.42 17362.7 6947.8 17362.7 6879.43 C 17362.7 6811.070000000001 17417.600000000002 6755.450000000001 17485.2 6755.450000000001 C 17552.8 6755.450000000001 17607.8 6811.070000000001 17607.8 6879.43 C 17607.8 6947.8 17552.8 7003.42 17485.2 7003.42 z M 17485.2 6695.45 C 17384.600000000002 6695.45 17302.7 6777.98 17302.7 6879.429999999999 C 17302.7 6980.879999999999 17384.600000000002 7063.419999999999 17485.2 7063.419999999999 C 17585.9 7063.419999999999 17667.8 6980.879999999999 17667.8 6879.429999999999 C 17667.8 6777.98 17585.899999999998 6695.45 17485.2 6695.45" stroke-linecap="round" />
</g>
<g transform="matrix(0.07 0 0 -0.07 432.37 106.73)" id="3HifEn_VAR0XjCbSCPTmd"  >
<path style="stroke: none; stroke-width: 1; stroke-dasharray: none; stroke-linecap: butt; stroke-dashoffset: 0; stroke-linejoin: miter; stroke-miterlimit: 4; fill: rgb(118,57,42); fill-rule: nonzero; opacity: 1;" vector-effect="non-scaling-stroke"  transform=" translate(-8401.36, -3308.25)" d="M 14052.3 3278.25 L 2750.42 3278.25 C 2733.86 3278.25 2720.42 3291.68 2720.42 3308.25 C 2720.42 3324.82 2733.86 3338.25 2750.42 3338.25 L 14052.3 3338.25 C 14068.8 3338.25 14082.3 3324.82 14082.3 3308.25 C 14082.3 3291.68 14068.8 3278.25 14052.3 3278.25" stroke-linecap="round" />
</g>
<g transform="matrix(0.07 0 0 -0.07 1576.31 106.73)" id="9Z4MA3mZKc2sCfvVk7IR3"  >
<path style="stroke: none; stroke-width: 1; stroke-dasharray: none; stroke-linecap: butt; stroke-dashoffset: 0; stroke-linejoin: miter; stroke-miterlimit: 4; fill: rgb(118,57,42); fill-rule: nonzero; opacity: 1;" vector-effect="non-scaling-stroke"  transform=" translate(-23601.6, -3308.25)" d="M 29252.5 3278.25 L 17950.7 3278.25 C 17934.100000000002 3278.25 17920.7 3291.68 17920.7 3308.25 C 17920.7 3324.82 17934.100000000002 3338.25 17950.7 3338.25 L 29252.5 3338.25 C 29269.1 3338.25 29282.5 3324.82 29282.5 3308.25 C 29282.5 3291.68 29269.1 3278.25 29252.5 3278.25" stroke-linecap="round" />
</g>
<g transform="matrix(0.07 0 0 -0.07 870.35 106.73)" id="DwjNmm-0VratthpJAG9sL"  >
<path style="stroke: none; stroke-width: 1; stroke-dasharray: none; stroke-linecap: butt; stroke-dashoffset: 0; stroke-linejoin: miter; stroke-miterlimit: 4; fill: rgb(118,57,42); fill-rule: nonzero; opacity: 1;" vector-effect="non-scaling-stroke"  transform=" translate(-14221, -3308.25)" d="M 14221 3432.23 C 14155.5 3432.23 14102.3 3376.61 14102.3 3308.2400000000002 C 14102.3 3239.8700000000003 14155.5 3184.26 14221 3184.26 C 14286.4 3184.26 14339.7 3239.8700000000003 14339.7 3308.2400000000002 C 14339.7 3376.61 14286.400000000001 3432.23 14221 3432.23 z M 14221 3124.26 C 14122.4 3124.26 14042.3 3206.8 14042.3 3308.2400000000002 C 14042.3 3409.69 14122.4 3492.2300000000005 14221 3492.2300000000005 C 14319.5 3492.2300000000005 14399.7 3409.6900000000005 14399.7 3308.2400000000007 C 14399.7 3206.8000000000006 14319.5 3124.2600000000007 14221 3124.2600000000007" stroke-linecap="round" />
</g>
<g transform="matrix(0.07 0 0 -0.07 893.48 106.73)" id="-ofp8FtuMBllu4Z2qyqCS"  >
<path style="stroke: none; stroke-width: 1; stroke-dasharray: none; stroke-linecap: butt; stroke-dashoffset: 0; stroke-linejoin: miter; stroke-miterlimit: 4; fill: rgb(118,57,42); fill-rule: nonzero; opacity: 1;" vector-effect="non-scaling-stroke"  transform=" translate(-14528.4, -3308.25)" d="M 14528.4 3432.23 C 14462.9 3432.23 14409.699999999999 3376.61 14409.699999999999 3308.2400000000002 C 14409.699999999999 3239.8700000000003 14462.9 3184.26 14528.4 3184.26 C 14593.8 3184.26 14647.1 3239.8700000000003 14647.1 3308.2400000000002 C 14647.1 3376.61 14593.800000000001 3432.23 14528.4 3432.23 z M 14528.4 3124.26 C 14429.8 3124.26 14349.699999999999 3206.8 14349.699999999999 3308.2400000000002 C 14349.699999999999 3409.69 14429.8 3492.2300000000005 14528.4 3492.2300000000005 C 14626.9 3492.2300000000005 14707.1 3409.6900000000005 14707.1 3308.2400000000007 C 14707.1 3206.8000000000006 14626.9 3124.2600000000007 14528.4 3124.2600000000007" stroke-linecap="round" />
</g>
<g transform="matrix(0.07 0 0 -0.07 1138.34 106.73)" id="_q8-rzOysUn2ZXNPiAag5"  >
<path style="stroke: none; stroke-width: 1; stroke-dasharray: none; stroke-linecap: butt; stroke-dashoffset: 0; stroke-linejoin: miter; stroke-miterlimit: 4; fill: rgb(118,57,42); fill-rule: nonzero; opacity: 1;" vector-effect="non-scaling-stroke"  transform=" translate(-17782, -3308.25)" d="M 17782 3432.23 C 17716.6 3432.23 17663.3 3376.61 17663.3 3308.2400000000002 C 17663.3 3239.8700000000003 17716.6 3184.26 17782 3184.26 C 17847.5 3184.26 17900.7 3239.8700000000003 17900.7 3308.2400000000002 C 17900.7 3376.61 17847.5 3432.23 17782 3432.23 z M 17782 3124.26 C 17683.5 3124.26 17603.3 3206.8 17603.3 3308.2400000000002 C 17603.3 3409.69 17683.5 3492.2300000000005 17782 3492.2300000000005 C 17880.6 3492.2300000000005 17960.7 3409.6900000000005 17960.7 3308.2400000000007 C 17960.7 3206.8000000000006 17880.600000000002 3124.2600000000007 17782 3124.2600000000007" stroke-linecap="round" />
</g>
<g transform="matrix(0.07 0 0 -0.07 1114.97 106.73)" id="MuMxnEL9t_hC2yazxTLIX"  >
<path style="stroke: none; stroke-width: 1; stroke-dasharray: none; stroke-linecap: butt; stroke-dashoffset: 0; stroke-linejoin: miter; stroke-miterlimit: 4; fill: rgb(118,57,42); fill-rule: nonzero; opacity: 1;" vector-effect="non-scaling-stroke"  transform=" translate(-17471.4, -3308.25)" d="M 17471.4 3432.23 C 17405.9 3432.23 17352.7 3376.61 17352.7 3308.2400000000002 C 17352.7 3239.8700000000003 17405.9 3184.26 17471.4 3184.26 C 17536.800000000003 3184.26 17590.100000000002 3239.8700000000003 17590.100000000002 3308.2400000000002 C 17590.100000000002 3376.61 17536.800000000003 3432.23 17471.4 3432.23 z M 17471.4 3124.26 C 17372.800000000003 3124.26 17292.7 3206.8 17292.7 3308.2400000000002 C 17292.7 3409.69 17372.8 3492.2300000000005 17471.4 3492.2300000000005 C 17569.9 3492.2300000000005 17650.100000000002 3409.6900000000005 17650.100000000002 3308.2400000000007 C 17650.100000000002 3206.8000000000006 17569.9 3124.2600000000007 17471.4 3124.2600000000007" stroke-linecap="round" />
</g>
<g transform="matrix(0.07 0 0 -0.07 1003.68 99.58)" id="Qib8xKNOZNWzwAuBklPVK"  >
<path style="stroke: none; stroke-width: 1; stroke-dasharray: none; stroke-linecap: butt; stroke-dashoffset: 0; stroke-linejoin: miter; stroke-miterlimit: 4; fill: rgb(118,57,42); fill-rule: nonzero; opacity: 1;" vector-effect="non-scaling-stroke"  transform=" translate(-15992.76, -3403.27)" d="M 16768.4 3130.05 C 16745.100000000002 3112.27 16735.4 3081.8700000000003 16744 3053.8700000000003 L 16798.8 2875.05 C 16860.1 2675 16763.7 2517.1000000000004 16652.899999999998 2436 C 16542.199999999997 2355 16362.599999999999 2310.7 16190.399999999998 2429.6 L 16036.499999999998 2535.9 C 16012.399999999998 2552.5 15980.499999999998 2552.4 15956.499999999998 2535.6 L 15803.299999999997 2428.2 C 15631.999999999998 2308.1 15451.999999999998 2351 15340.699999999997 2431.2999999999997 C 15229.399999999998 2511.4999999999995 15131.799999999997 2668.7 15191.599999999997 2869.1899999999996 L 15245.099999999997 3048.4799999999996 C 15253.499999999996 3076.5399999999995 15243.499999999996 3106.8599999999997 15220.099999999997 3124.4699999999993 L 15070.699999999997 3236.9099999999994 C 14903.499999999996 3362.7499999999995 14888.699999999997 3547.1799999999994 14930.599999999997 3677.7999999999993 C 14972.499999999996 3808.4699999999993 15091.899999999996 3949.8699999999994 15301.099999999997 3954.899999999999 L 15488.099999999997 3959.379999999999 C 15517.399999999996 3960.079999999999 15543.099999999997 3978.939999999999 15552.599999999997 4006.6399999999994 L 15613.399999999996 4183.5599999999995 C 15655.699999999995 4306.709999999999 15745.099999999997 4395.53 15865.099999999997 4433.639999999999 C 15906.199999999997 4446.669999999999 15948.699999999997 4453.2699999999995 15991.699999999997 4453.2699999999995 C 16076.499999999996 4453.2699999999995 16159.999999999996 4426.74 16226.799999999997 4378.54 C 16291.799999999997 4331.72 16339.099999999997 4267.05 16367.499999999998 4186.32 L 16429.5 4009.8399999999997 C 16439.2 3982.2099999999996 16465.1 3963.5399999999995 16494.4 3963.0599999999995 L 16681.5 3959.9299999999994 C 16767 3958.5099999999993 16843.3 3934.0299999999993 16908.3 3887.2199999999993 C 17010.8 3813.3399999999992 17073 3691.5599999999995 17074.8 3561.459999999999 C 17076.6 3435.579999999999 17020.6 3322.699999999999 16917.1 3243.609999999999 z M 16946.2 3939.7700000000004 C 16870.3 3994.4700000000003 16781.600000000002 4023.0600000000004 16682.5 4024.7100000000005 L 16508.7 4027.6100000000006 C 16498.600000000002 4027.7800000000007 16489.600000000002 4034.2200000000007 16486.3 4043.7500000000005 L 16428.6 4207.8 C 16395.699999999997 4301.26 16340.599999999999 4376.39 16264.699999999999 4431.09 C 16145.699999999999 4516.900000000001 15988.999999999998 4540.9400000000005 15845.499999999998 4495.39 C 15705.499999999998 4450.910000000001 15601.299999999997 4347.650000000001 15552.099999999999 4204.620000000001 L 15495.599999999999 4040.140000000001 C 15492.399999999998 4030.580000000001 15483.499999999998 4024.0700000000006 15473.399999999998 4023.830000000001 L 15299.499999999998 4019.670000000001 C 15056.299999999997 4013.830000000001 14917.599999999999 3849.460000000001 14868.899999999998 3697.600000000001 C 14820.199999999997 3545.7600000000007 14837.399999999998 3331.420000000001 15031.799999999997 3185.1600000000008 L 15170.699999999997 3080.620000000001 C 15178.799999999997 3074.5300000000007 15182.199999999997 3064.0700000000006 15179.299999999997 3054.390000000001 L 15129.499999999998 2887.710000000001 C 15059.999999999998 2654.7000000000007 15173.499999999998 2472.000000000001 15302.799999999997 2378.7000000000007 C 15383.499999999998 2320.600000000001 15480.799999999997 2288.500000000001 15576.799999999997 2288.500000000001 C 15669.799999999997 2288.500000000001 15758.499999999998 2317.7000000000007 15840.499999999998 2375.2000000000007 L 15982.899999999998 2475.000000000001 C 15991.199999999997 2480.800000000001 16002.199999999997 2480.900000000001 16010.499999999998 2475.100000000001 L 16153.599999999999 2376.3000000000006 C 16353.699999999999 2238.100000000001 16562.5 2289.5000000000005 16691.199999999997 2383.7000000000007 C 16819.899999999998 2477.9000000000005 16931.999999999996 2661.500000000001 16860.699999999997 2894.0300000000007 L 16809.799999999996 3060.2700000000004 C 16806.799999999996 3069.9400000000005 16810.199999999997 3080.4300000000003 16818.199999999997 3086.5600000000004 L 16956.399999999998 3192.1400000000003 C 17076.6 3283.9800000000005 17141.699999999997 3415.4700000000003 17139.6 3562.3700000000003 C 17137.5 3712.8700000000003 17065.199999999997 3853.9600000000005 16946.199999999997 3939.7700000000004" stroke-linecap="round" />
</g>
<g transform="matrix(0.07 0 0 -0.07 1026.41 82.03)" id="aoaUx_Qrj1Iu1ZTbVVH7u"  >
<path style="stroke: none; stroke-width: 1; stroke-dasharray: none; stroke-linecap: butt; stroke-dashoffset: 0; stroke-linejoin: miter; stroke-miterlimit: 4; fill: rgb(118,57,42); fill-rule: nonzero; opacity: 1;" vector-effect="non-scaling-stroke"  transform=" translate(-16294.75, -3636.52)" d="M 16450.1 3755.07 L 16177.599999999999 3480.27 C 16172.199999999999 3486.87 16166.399999999998 3493.27 16160.199999999999 3499.37 C 16153.599999999999 3505.98 16146.599999999999 3512.17 16139.4 3517.87 L 16412.1 3792.77 L 16450.1 3755.07" stroke-linecap="round" />
</g>
<g transform="matrix(0.07 0 0 -0.07 979.49 129.34)" id="CWQuaBa9zVuPzM_-y3jdM"  >
<path style="stroke: none; stroke-width: 1; stroke-dasharray: none; stroke-linecap: butt; stroke-dashoffset: 0; stroke-linejoin: miter; stroke-miterlimit: 4; fill: rgb(118,57,42); fill-rule: nonzero; opacity: 1;" vector-effect="non-scaling-stroke"  transform=" translate(-15671.25, -3007.92)" d="M 15826.5 3126.37 L 15554 2851.5699999999997 L 15516 2889.37 L 15788.7 3164.27 C 15794.5 3157.07 15800.7 3150.18 15807.300000000001 3143.57 C 15813.400000000001 3137.4700000000003 15819.900000000001 3131.77 15826.500000000002 3126.3700000000003" stroke-linecap="round" />
</g>
<g transform="matrix(0.07 0 0 -0.07 1002.82 72.4)" id="fE9cLqSc1_sTsuVlD4KWJ"  >
<path style="stroke: none; stroke-width: 1; stroke-dasharray: none; stroke-linecap: butt; stroke-dashoffset: 0; stroke-linejoin: miter; stroke-miterlimit: 4; fill: rgb(118,57,42); fill-rule: nonzero; opacity: 1;" vector-effect="non-scaling-stroke"  transform=" translate(-15981.25, -3764.52)" d="M 16008.8 3570.87 C 16000.099999999999 3571.67 15991.5 3572.0699999999997 15982.699999999999 3572.0699999999997 C 15973.499999999998 3572.0699999999997 15964.3 3571.47 15955.3 3570.47 L 15953.699999999999 3958.37 L 16007.199999999999 3958.5699999999997 L 16008.8 3570.87" stroke-linecap="round" />
</g>
<g transform="matrix(0.07 0 0 -0.07 1003.09 139.03)" id="Saz2h5mInTzYECGE7Dw4a"  >
<path style="stroke: none; stroke-width: 1; stroke-dasharray: none; stroke-linecap: butt; stroke-dashoffset: 0; stroke-linejoin: miter; stroke-miterlimit: 4; fill: rgb(118,57,42); fill-rule: nonzero; opacity: 1;" vector-effect="non-scaling-stroke"  transform=" translate(-15984.85, -2879.09)" d="M 16012.4 2686.1 L 15958.9 2685.9 L 15957.3 3072.28 C 15966 3071.3700000000003 15974.8 3070.8700000000003 15983.699999999999 3070.8700000000003 L 15984.8 3070.8700000000003 C 15993.5 3070.8700000000003 16002.199999999999 3071.3700000000003 16010.8 3072.28 L 16012.4 2686.1000000000004" stroke-linecap="round" />
</g>
<g transform="matrix(0.07 0 0 -0.07 979.32 82.25)" id="zlZ35irI8KKVl3Z1qQ09B"  >
<path style="stroke: none; stroke-width: 1; stroke-dasharray: none; stroke-linecap: butt; stroke-dashoffset: 0; stroke-linejoin: miter; stroke-miterlimit: 4; fill: rgb(118,57,42); fill-rule: nonzero; opacity: 1;" vector-effect="non-scaling-stroke"  transform=" translate(-15669.05, -3633.62)" d="M 15825.7 3515.98 C 15818.800000000001 3510.37 15812.2 3504.37 15805.800000000001 3497.97 C 15799.500000000002 3491.5699999999997 15793.500000000002 3484.87 15787.900000000001 3477.97 L 15512.400000000001 3751.27 L 15550.2 3789.27 L 15825.7 3515.98" stroke-linecap="round" />
</g>
<g transform="matrix(0.07 0 0 -0.07 1026.63 129.17)" id="pcFsaoocqIN0HhBriTJU7"  >
<path style="stroke: none; stroke-width: 1; stroke-dasharray: none; stroke-linecap: butt; stroke-dashoffset: 0; stroke-linejoin: miter; stroke-miterlimit: 4; fill: rgb(118,57,42); fill-rule: nonzero; opacity: 1;" vector-effect="non-scaling-stroke"  transform=" translate(-16297.7, -3010.07)" d="M 16453.7 2893.17 L 16415.9 2855.07 L 16141.7 3127.07 C 16148.6 3132.57 16155.300000000001 3138.67 16161.7 3145.07 C 16168 3151.4700000000003 16174 3158.17 16179.5 3165.07 L 16453.7 2893.17" stroke-linecap="round" />
</g>
<g transform="matrix(0.07 0 0 -0.07 1036.3 105.55)" id="pmGIsQSKnUcp9SaChZVF0"  >
<path style="stroke: none; stroke-width: 1; stroke-dasharray: none; stroke-linecap: butt; stroke-dashoffset: 0; stroke-linejoin: miter; stroke-miterlimit: 4; fill: rgb(118,57,42); fill-rule: nonzero; opacity: 1;" vector-effect="non-scaling-stroke"  transform=" translate(-16426.05, -3323.97)" d="M 16233.1 3296.37 C 16233.9 3304.97 16234.300000000001 3313.67 16234.300000000001 3322.47 C 16234.300000000001 3331.77 16233.7 3340.87 16232.7 3349.97 L 16619.2 3351.5699999999997 L 16619.4 3297.97 L 16233.100000000002 3296.37" stroke-linecap="round" />
</g>
<g transform="matrix(0.07 0 0 -0.07 969.66 105.82)" id="gl4zTJcTHkH59vb28sZZM"  >
<path style="stroke: none; stroke-width: 1; stroke-dasharray: none; stroke-linecap: butt; stroke-dashoffset: 0; stroke-linejoin: miter; stroke-miterlimit: 4; fill: rgb(118,57,42); fill-rule: nonzero; opacity: 1;" vector-effect="non-scaling-stroke"  transform=" translate(-15540.7, -3320.37)" d="M 15734.7 3294.37 L 15346.900000000001 3292.77 L 15346.7 3346.37 L 15734.6 3347.97 C 15733.6 3338.87 15733.2 3329.6699999999996 15733.2 3320.47 C 15733.2 3311.6699999999996 15733.7 3302.97 15734.7 3294.37" stroke-linecap="round" />
</g>
<g transform="matrix(0.07 0 0 -0.07 1035.98 72.39)" id="O50DxuAAc-aEGTLryc-FL"  >
<path style="stroke: none; stroke-width: 1; stroke-dasharray: none; stroke-linecap: butt; stroke-dashoffset: 0; stroke-linejoin: miter; stroke-miterlimit: 4; fill: rgb(118,57,42); fill-rule: nonzero; opacity: 1;" vector-effect="non-scaling-stroke"  transform=" translate(-16421.85, -3764.59)" d="M 16377 3809.05 C 16401.6 3833.8100000000004 16441.6 3833.9700000000003 16466.3 3809.42 C 16491.1 3784.86 16491.2 3744.88 16466.7 3720.13 C 16442.100000000002 3695.37 16402.100000000002 3695.21 16377.400000000001 3719.76 C 16352.600000000002 3744.32 16352.500000000002 3784.3 16377.000000000002 3809.05" stroke-linecap="round" />
</g>
<g transform="matrix(0.07 0 0 -0.07 969.93 138.98)" id="kBWaJnB0ZDwQPdgkRyydW"  >
<path style="stroke: none; stroke-width: 1; stroke-dasharray: none; stroke-linecap: butt; stroke-dashoffset: 0; stroke-linejoin: miter; stroke-miterlimit: 4; fill: rgb(118,57,42); fill-rule: nonzero; opacity: 1;" vector-effect="non-scaling-stroke"  transform=" translate(-15544.25, -2879.8)" d="M 15499.4 2924.26 C 15474.9 2899.5 15475 2859.5200000000004 15499.8 2834.9700000000003 C 15524.5 2810.4100000000003 15564.5 2810.5800000000004 15589.099999999999 2835.3300000000004 C 15613.599999999999 2860.0900000000006 15613.499999999998 2900.07 15588.699999999999 2924.6300000000006 C 15563.999999999998 2949.1800000000007 15523.999999999998 2949.0100000000007 15499.4 2924.2600000000007" stroke-linecap="round" />
</g>
<g transform="matrix(0.07 0 0 -0.07 1002.76 58.79)" id="jhGc6ZI4hV-HtRVujwFVE"  >
<path style="stroke: none; stroke-width: 1; stroke-dasharray: none; stroke-linecap: butt; stroke-dashoffset: 0; stroke-linejoin: miter; stroke-miterlimit: 4; fill: rgb(118,57,42); fill-rule: nonzero; opacity: 1;" vector-effect="non-scaling-stroke"  transform=" translate(-15980.5, -3945.29)" d="M 15917.4 3945.04 C 15917.199999999999 3979.9 15945.4 4008.29 15980.199999999999 4008.44 C 16015.099999999999 4008.57 16043.499999999998 3980.42 16043.599999999999 3945.56 C 16043.8 3910.68 16015.599999999999 3882.29 15980.8 3882.15 C 15945.9 3882.01 15917.5 3910.17 15917.4 3945.04" stroke-linecap="round" />
</g>
<g transform="matrix(0.07 0 0 -0.07 1003.15 152.58)" id="qVqnlihWOSBZWf3_2xLcj"  >
<path style="stroke: none; stroke-width: 1; stroke-dasharray: none; stroke-linecap: butt; stroke-dashoffset: 0; stroke-linejoin: miter; stroke-miterlimit: 4; fill: rgb(118,57,42); fill-rule: nonzero; opacity: 1;" vector-effect="non-scaling-stroke"  transform=" translate(-15985.6, -2699.05)" d="M 15922.5 2698.8 C 15922.6 2664 15951 2635.8 15985.8 2635.9 C 16020.699999999999 2636.1 16048.9 2664.5 16048.699999999999 2699.4 C 16048.599999999999 2734.2000000000003 16020.199999999999 2762.4 15985.3 2762.2000000000003 C 15950.5 2762.1000000000004 15922.3 2733.7000000000003 15922.5 2698.8" stroke-linecap="round" />
</g>
<g transform="matrix(0.07 0 0 -0.07 969.66 72.66)" id="-r2CEGs1U5JR7rlYIi4zH"  >
<path style="stroke: none; stroke-width: 1; stroke-dasharray: none; stroke-linecap: butt; stroke-dashoffset: 0; stroke-linejoin: miter; stroke-miterlimit: 4; fill: rgb(118,57,42); fill-rule: nonzero; opacity: 1;" vector-effect="non-scaling-stroke"  transform=" translate(-15540.65, -3760.99)" d="M 15496.2 3716.16 C 15471.400000000001 3740.72 15471.300000000001 3780.7 15495.800000000001 3805.46 C 15520.400000000001 3830.21 15560.400000000001 3830.38 15585.1 3805.82 C 15609.9 3781.27 15610 3741.28 15585.5 3716.53 C 15560.9 3691.78 15520.9 3691.61 15496.2 3716.1600000000003" stroke-linecap="round" />
</g>
<g transform="matrix(0.07 0 0 -0.07 1036.25 138.71)" id="FYlD1_s2gKLjXSlElmvXf"  >
<path style="stroke: none; stroke-width: 1; stroke-dasharray: none; stroke-linecap: butt; stroke-dashoffset: 0; stroke-linejoin: miter; stroke-miterlimit: 4; fill: rgb(118,57,42); fill-rule: nonzero; opacity: 1;" vector-effect="non-scaling-stroke"  transform=" translate(-16425.45, -2883.39)" d="M 16381 2838.56 C 16405.7 2814.0099999999998 16445.7 2814.17 16470.3 2838.93 C 16494.8 2863.68 16494.7 2903.6699999999996 16469.899999999998 2928.22 C 16445.199999999997 2952.77 16405.199999999997 2952.62 16380.599999999999 2927.8599999999997 C 16356.099999999999 2903.1099999999997 16356.199999999999 2863.12 16380.999999999998 2838.5599999999995" stroke-linecap="round" />
</g>
<g transform="matrix(0.07 0 0 -0.07 956.06 105.87)" id="5pYocX-LSJsZfrTSeKwxX"  >
<path style="stroke: none; stroke-width: 1; stroke-dasharray: none; stroke-linecap: butt; stroke-dashoffset: 0; stroke-linejoin: miter; stroke-miterlimit: 4; fill: rgb(118,57,42); fill-rule: nonzero; opacity: 1;" vector-effect="non-scaling-stroke"  transform=" translate(-15359.95, -3319.65)" d="M 15360.2 3256.5 C 15325.300000000001 3256.37 15296.900000000001 3284.52 15296.800000000001 3319.39 C 15296.7 3354.2599999999998 15324.800000000001 3382.65 15359.7 3382.79 C 15394.6 3382.93 15422.900000000001 3354.7799999999997 15423.1 3319.91 C 15423.2 3285.04 15395.1 3256.6499999999996 15360.2 3256.5" stroke-linecap="round" />
</g>
<g transform="matrix(0.07 0 0 -0.07 1049.85 105.5)" id="RKEppHu3a9YqY3H5zoEbG"  >
<path style="stroke: none; stroke-width: 1; stroke-dasharray: none; stroke-linecap: butt; stroke-dashoffset: 0; stroke-linejoin: miter; stroke-miterlimit: 4; fill: rgb(118,57,42); fill-rule: nonzero; opacity: 1;" vector-effect="non-scaling-stroke"  transform=" translate(-16606.15, -3324.74)" d="M 16606.4 3261.59 C 16641.300000000003 3261.7400000000002 16669.4 3290.13 16669.300000000003 3325 C 16669.200000000004 3359.86 16640.800000000003 3388.02 16605.9 3387.88 C 16571 3387.73 16542.9 3359.35 16543 3324.48 C 16543.1 3289.61 16571.5 3261.46 16606.4 3261.59" stroke-linecap="round" />
</g>
<g transform="matrix(0.07 0 0 -0.07 1003.01 105.74)" id="Qx5n_w_EIBfun5mddbSqG"  >
<path style="stroke: none; stroke-width: 1; stroke-dasharray: none; stroke-linecap: butt; stroke-dashoffset: 0; stroke-linejoin: miter; stroke-miterlimit: 4; fill: rgb(118,57,42); fill-rule: nonzero; opacity: 1;" vector-effect="non-scaling-stroke"  transform=" translate(-15983.75, -3321.47)" d="M 16140.3 3203.97 C 16135.099999999999 3196.87 16129.199999999999 3190.0699999999997 16122.8 3183.5699999999997 C 16116.4 3177.1699999999996 16109.699999999999 3171.1699999999996 16102.599999999999 3165.87 C 16075.8 3145.27 16044.399999999998 3132.17 16010.599999999999 3127.5699999999997 C 16001.8 3126.37 15992.8 3125.6699999999996 15983.699999999999 3125.6699999999996 C 15974.699999999999 3125.6699999999996 15965.8 3126.2699999999995 15957.099999999999 3127.47 C 15923.699999999999 3131.97 15892.199999999999 3145.0699999999997 15865.399999999998 3165.5699999999997 C 15858.599999999999 3170.6699999999996 15852.099999999999 3176.37 15845.899999999998 3182.47 C 15839.199999999997 3189.0699999999997 15833.099999999999 3196.0699999999997 15827.499999999998 3203.48 C 15807.199999999999 3230.18 15794.299999999997 3261.37 15789.799999999997 3294.57 C 15788.599999999997 3303.17 15787.999999999998 3311.8700000000003 15787.999999999998 3320.67 C 15787.899999999998 3329.9700000000003 15788.499999999998 3339.17 15789.799999999997 3348.17 C 15794.199999999997 3381.27 15806.999999999998 3412.4700000000003 15827.099999999997 3439.07 C 15832.499999999996 3446.17 15838.299999999997 3452.9700000000003 15844.699999999997 3459.3700000000003 C 15851.099999999997 3465.7700000000004 15857.799999999997 3471.6700000000005 15864.899999999998 3477.07 C 15891.399999999998 3497.4700000000003 15922.499999999998 3510.4700000000003 15955.499999999998 3515.27 C 15964.499999999998 3516.57 15973.699999999999 3517.28 15982.899999999998 3517.28 L 15983.799999999997 3517.28 C 15992.299999999997 3517.28 16000.699999999997 3516.77 16008.999999999998 3515.67 C 16042.299999999997 3511.4700000000003 16073.599999999999 3498.77 16100.499999999998 3478.67 C 16107.899999999998 3473.17 16114.899999999998 3467.07 16121.599999999999 3460.4700000000003 C 16127.8 3454.3700000000003 16133.499999999998 3447.8700000000003 16138.699999999999 3441.07 C 16159.499999999998 3414.4700000000003 16172.699999999999 3383.17 16177.499999999998 3349.78 C 16178.799999999997 3340.77 16179.499999999998 3331.57 16179.599999999999 3322.28 C 16179.599999999999 3313.48 16179.099999999999 3304.78 16177.899999999998 3296.17 C 16173.699999999997 3262.57 16160.799999999997 3230.98 16140.299999999997 3203.9700000000003 z M 16232.699999999999 3349.97 C 16227.4 3398.0699999999997 16208.3 3442.97 16177.599999999999 3480.27 C 16172.199999999999 3486.87 16166.399999999998 3493.27 16160.199999999999 3499.37 C 16153.599999999999 3505.98 16146.599999999999 3512.17 16139.4 3517.87 C 16101.6 3547.97 16056.5 3566.17 16008.8 3570.87 C 16000.099999999999 3571.67 15991.5 3572.0699999999997 15982.699999999999 3572.0699999999997 C 15973.499999999998 3572.0699999999997 15964.3 3571.47 15955.3 3570.47 C 15907.599999999999 3565.0699999999997 15862.9 3546.37 15825.699999999999 3515.98 C 15818.8 3510.37 15812.199999999999 3504.37 15805.8 3497.97 C 15799.5 3491.5699999999997 15793.5 3484.87 15787.9 3477.97 C 15758 3440.5699999999997 15739.5 3395.6699999999996 15734.6 3347.97 C 15733.6 3338.87 15733.2 3329.6699999999996 15733.2 3320.47 C 15733.2 3311.6699999999996 15733.7 3302.97 15734.7 3294.37 C 15739.7 3246.5699999999997 15758.400000000001 3201.5699999999997 15788.7 3164.27 C 15794.5 3157.07 15800.7 3150.18 15807.300000000001 3143.57 C 15813.400000000001 3137.4700000000003 15819.900000000001 3131.77 15826.500000000002 3126.3700000000003 C 15864.100000000002 3095.8700000000003 15909.200000000003 3077.28 15957.300000000001 3072.28 C 15966.000000000002 3071.3700000000003 15974.800000000001 3070.8700000000003 15983.7 3070.8700000000003 L 15984.800000000001 3070.8700000000003 C 15993.500000000002 3070.8700000000003 16002.2 3071.3700000000003 16010.800000000001 3072.28 C 16059.000000000002 3077.4700000000003 16104.1 3096.27 16141.7 3127.07 C 16148.6 3132.57 16155.300000000001 3138.67 16161.7 3145.07 C 16168 3151.4700000000003 16174 3158.17 16179.5 3165.07 C 16209.8 3202.8700000000003 16228.3 3248.17 16233.1 3296.3700000000003 C 16233.9 3304.9700000000003 16234.300000000001 3313.6700000000005 16234.300000000001 3322.4700000000003 C 16234.300000000001 3331.7700000000004 16233.7 3340.8700000000003 16232.7 3349.9700000000003" stroke-linecap="round" />
</g>
<g transform="matrix(0.07 0 0 -0.07 1003.01 105.74)" id="NdVn0PmZkz9E4mEh6PH5V"  >
<path style="stroke: none; stroke-width: 1; stroke-dasharray: none; stroke-linecap: butt; stroke-dashoffset: 0; stroke-linejoin: miter; stroke-miterlimit: 4; fill: rgb(118,57,42); fill-rule: nonzero; opacity: 1;" vector-effect="non-scaling-stroke"  transform=" translate(-15983.75, -3321.49)" d="M 16050.7 3255.12 C 16014 3218.16 15954.300000000001 3217.92 15917.400000000001 3254.5699999999997 C 15880.400000000001 3291.2299999999996 15880.2 3350.8999999999996 15916.800000000001 3387.8599999999997 C 15953.500000000002 3424.8099999999995 16013.2 3425.0599999999995 16050.1 3388.3999999999996 C 16087.1 3351.7499999999995 16087.300000000001 3292.0699999999997 16050.7 3255.1199999999994" stroke-linecap="round" />
</g>
<g transform="matrix(0.07 0 0 -0.07 1004.23 -156.66)" id="BWKFarRIfXf2bxr9sAgKO"  >
<path style="stroke: none; stroke-width: 1; stroke-dasharray: none; stroke-linecap: butt; stroke-dashoffset: 0; stroke-linejoin: miter; stroke-miterlimit: 4; fill: rgb(118,57,42); fill-rule: nonzero; opacity: 1;" vector-effect="non-scaling-stroke"  transform=" translate(-16000, -6942.64)" d="M 16000 6140.61 L 16024.6 6099.509999999999 C 16104.2 5966.219999999999 16249.9 5883.429999999999 16404.9 5883.429999999999 C 16649.100000000002 5883.429999999999 16847.7 6082.0599999999995 16847.7 6326.209999999999 C 16847.7 6429.999999999999 16811 6530.919999999999 16744.4 6610.399999999999 L 16714.5 6646.049999999998 L 16759.8 6656.629999999998 C 16961 6703.609999999998 17101.5 6880.869999999998 17101.5 7087.689999999999 C 17101.5 7331.839999999998 16902.9 7530.469999999998 16658.7 7530.469999999998 C 16597.100000000002 7530.469999999998 16537.4 7517.959999999998 16481.100000000002 7493.299999999998 L 16437.100000000002 7474.019999999999 L 16441.100000000002 7521.8499999999985 C 16442.2 7535.549999999998 16442.800000000003 7547.729999999999 16442.800000000003 7559.079999999998 C 16442.800000000003 7803.229999999998 16244.200000000003 8001.869999999998 16000.000000000004 8001.869999999998 C 15755.800000000003 8001.869999999998 15557.200000000004 7803.229999999998 15557.200000000004 7559.079999999998 C 15557.200000000004 7547.629999999998 15557.800000000005 7535.449999999998 15558.900000000005 7521.859999999998 L 15562.900000000005 7474.0099999999975 L 15518.900000000005 7493.299999999997 C 15462.600000000006 7517.959999999997 15402.900000000005 7530.4699999999975 15341.300000000005 7530.4699999999975 C 15097.100000000004 7530.4699999999975 14898.500000000005 7331.839999999997 14898.500000000005 7087.689999999998 C 14898.500000000005 6880.869999999998 15039.000000000005 6703.609999999998 15240.200000000006 6656.629999999997 L 15285.500000000005 6646.049999999997 L 15255.600000000006 6610.399999999998 C 15189.000000000005 6530.909999999998 15152.300000000007 6429.989999999998 15152.300000000007 6326.209999999998 C 15152.300000000007 6082.059999999999 15350.900000000007 5883.4299999999985 15595.100000000006 5883.4299999999985 C 15750.100000000006 5883.4299999999985 15895.800000000007 5966.219999999998 15975.400000000005 6099.509999999998 z M 16404.9 5826.219999999999 C 16244.800000000001 5826.219999999999 16093.400000000001 5904.449999999999 16000.000000000002 6032.99 C 15906.500000000002 5904.45 15755.200000000003 5826.219999999999 15595.100000000002 5826.219999999999 C 15319.400000000001 5826.219999999999 15095.100000000002 6050.5199999999995 15095.100000000002 6326.209999999999 C 15095.100000000002 6428.839999999999 15126.900000000001 6528.999999999999 15185.300000000003 6612.599999999999 C 14980.700000000003 6679.209999999999 14841.300000000003 6868.789999999999 14841.300000000003 7087.69 C 14841.300000000003 7363.379999999999 15065.600000000002 7587.679999999999 15341.300000000003 7587.679999999999 C 15395.800000000003 7587.679999999999 15449.000000000004 7579.009999999999 15500.000000000004 7561.86 C 15501.500000000004 7836.29 15725.200000000004 8059.07 16000.000000000004 8059.07 C 16274.800000000003 8059.07 16498.500000000004 7836.29 16500.000000000004 7561.87 C 16551.000000000004 7579.01 16604.200000000004 7587.68 16658.700000000004 7587.68 C 16934.400000000005 7587.68 17158.700000000004 7363.38 17158.700000000004 7087.6900000000005 C 17158.700000000004 6868.790000000001 17019.300000000003 6679.200000000001 16814.700000000004 6612.6 C 16873.100000000006 6529.01 16904.900000000005 6428.84 16904.900000000005 6326.21 C 16904.900000000005 6050.52 16680.600000000006 5826.22 16404.900000000005 5826.22" stroke-linecap="round" />
</g>
<g transform="matrix(0.07 0 0 -0.07 1002.84 -207.13)" id="7f_aKV7Mr5UApzn_qk-4F"  >
<path style="stroke: none; stroke-width: 1; stroke-dasharray: none; stroke-linecap: butt; stroke-dashoffset: 0; stroke-linejoin: miter; stroke-miterlimit: 4; fill: rgb(118,57,42); fill-rule: nonzero; opacity: 1;" vector-effect="non-scaling-stroke"  transform=" translate(-15981.55, -7613.35)" d="M 16102.5 7903.59 C 15889.4 7957.96 15671.7 7828.74 15617.4 7615.6 L 15617.4 7615.6 C 15615.8 7609.320000000001 15616.699999999999 7602.8 15620 7597.240000000001 C 15623.3 7591.670000000001 15628.6 7587.710000000001 15634.9 7586.120000000001 C 15647.8 7582.81 15661.1 7590.680000000001 15664.4 7603.620000000001 C 15687.5 7694.170000000001 15744.6 7770.390000000001 15825.199999999999 7818.220000000001 C 15905.699999999999 7866.060000000001 15999.999999999998 7879.680000000001 16090.499999999998 7856.590000000001 C 16161.699999999999 7838.440000000001 16221.599999999999 7793.550000000001 16259.199999999999 7730.210000000001 C 16296.8 7666.860000000001 16307.499999999998 7592.760000000001 16289.4 7521.570000000001 C 16275.199999999999 7465.880000000001 16240.1 7419.000000000001 16190.5 7389.570000000001 C 16140.9 7360.150000000001 16083 7351.77 16027.3 7365.97 C 15983.9 7377.030000000001 15947.4 7404.33 15924.599999999999 7442.820000000001 C 15901.699999999999 7481.31 15895.199999999999 7526.400000000001 15906.3 7569.77 C 15914.8 7603.160000000001 15935.9 7631.26 15965.599999999999 7648.910000000001 C 15995.3 7666.550000000001 16029.999999999998 7671.570000000001 16063.399999999998 7663.06 C 16116.099999999999 7649.63 16147.999999999998 7595.88 16134.599999999999 7543.2300000000005 C 16129.699999999999 7524.09 16117.599999999999 7507.990000000001 16100.699999999999 7497.910000000001 C 16083.599999999999 7487.81 16063.699999999999 7484.960000000001 16044.599999999999 7489.830000000001 C 16030.599999999999 7493.420000000001 16018.699999999999 7502.280000000001 16011.3 7514.760000000001 C 16003.9 7527.230000000001 16001.8 7541.840000000001 16005.4 7555.9000000000015 C 16007.9 7565.910000000002 16014.199999999999 7574.310000000001 16023.1 7579.580000000002 C 16032 7584.840000000002 16042.4 7586.3200000000015 16052.4 7583.780000000002 C 16059.1 7582.0700000000015 16064.699999999999 7577.8200000000015 16068.3 7571.830000000002 C 16071.8 7565.840000000002 16072.9 7558.840000000002 16071.099999999999 7552.100000000002 C 16067.8 7539.150000000002 16075.699999999999 7525.930000000002 16088.699999999999 7522.620000000003 C 16101.599999999999 7519.350000000002 16114.8 7527.210000000003 16118.099999999999 7540.130000000003 C 16123.099999999999 7559.390000000003 16120.199999999999 7579.440000000003 16109.999999999998 7596.580000000003 C 16099.799999999997 7613.720000000003 16083.599999999999 7625.860000000002 16064.299999999997 7630.770000000002 C 16041.799999999997 7636.520000000002 16018.399999999998 7633.150000000002 15998.299999999997 7621.260000000002 C 15978.299999999997 7609.380000000002 15964.199999999997 7590.430000000002 15958.399999999998 7567.890000000002 C 15951.599999999999 7541.270000000002 15955.599999999999 7513.610000000002 15969.599999999999 7490.000000000002 C 15983.599999999999 7466.390000000002 16005.999999999998 7449.640000000002 16032.599999999999 7442.840000000002 C 16098.099999999999 7426.140000000002 16164.899999999998 7465.850000000002 16181.599999999999 7531.260000000002 C 16201.599999999999 7609.800000000002 16153.999999999998 7690.010000000002 16075.399999999998 7710.050000000002 C 15980.499999999998 7734.230000000002 15883.499999999998 7676.690000000002 15859.299999999997 7581.750000000002 C 15844.999999999998 7525.8200000000015 15853.399999999998 7467.690000000001 15882.899999999998 7418.0700000000015 C 15912.299999999997 7368.430000000001 15959.399999999998 7333.240000000002 16015.299999999997 7318.980000000001 C 16036.899999999998 7313.480000000001 16058.999999999998 7310.690000000001 16080.999999999998 7310.690000000001 C 16127.999999999998 7310.690000000001 16174.399999999998 7323.520000000001 16215.299999999997 7347.780000000002 C 16275.999999999998 7383.790000000002 16318.999999999998 7441.250000000002 16336.399999999998 7509.590000000002 C 16380.499999999998 7682.700000000002 16275.599999999999 7859.450000000002 16102.499999999998 7903.590000000002" stroke-linecap="round" />
</g>
<g transform="matrix(0.07 0 0 -0.07 952.07 -169.19)" id="Wr1YEPqcnzwx_00FHcTXF"  >
<path style="stroke: none; stroke-width: 1; stroke-dasharray: none; stroke-linecap: butt; stroke-dashoffset: 0; stroke-linejoin: miter; stroke-miterlimit: 4; fill: rgb(118,57,42); fill-rule: nonzero; opacity: 1;" vector-effect="non-scaling-stroke"  transform=" translate(-15306.96, -7109.23)" d="M 15625 7211.23 C 15616.1 7281.19 15580.5 7343.49 15524.7 7386.65 C 15456.300000000001 7439.599999999999 15371.300000000001 7462.719999999999 15285.5 7451.82 C 15199.6 7440.86 15123.2 7397.139999999999 15070.2 7328.71 C 15005 7244.43 14976.5 7139.81 14990 7034.12 C 15003.5 6928.43 15057.3 6834.3 15141.5 6769.11 C 15145.7 6765.83 15151 6764.009999999999 15156.4 6764.009999999999 C 15164 6764.009999999999 15170.9 6767.44 15175.6 6773.419999999999 C 15179.5 6778.539999999999 15181.300000000001 6784.899999999999 15180.4 6791.319999999999 C 15179.6 6797.749999999999 15176.4 6803.469999999998 15171.199999999999 6807.4299999999985 C 15097.3 6864.619999999998 15050.099999999999 6947.309999999999 15038.3 7040.269999999999 C 15026.4 7133.229999999999 15051.4 7225.129999999998 15108.599999999999 7299.029999999999 C 15153.599999999999 7357.229999999999 15218.599999999999 7394.399999999999 15291.599999999999 7403.709999999999 C 15364.599999999999 7413.039999999999 15436.899999999998 7393.349999999999 15495.099999999999 7348.299999999999 C 15588.999999999998 7275.57 15606.3 7139.919999999999 15533.599999999999 7045.919999999999 C 15506.199999999999 7010.579999999999 15466.699999999999 6987.989999999999 15422.199999999999 6982.329999999999 C 15377.8 6976.639999999999 15333.8 6988.599999999999 15298.499999999998 7015.949999999999 C 15271.199999999999 7037.079999999999 15253.799999999997 7067.559999999999 15249.399999999998 7101.799999999999 C 15244.999999999998 7136.049999999999 15254.299999999997 7169.94 15275.399999999998 7197.23 C 15291.499999999998 7218.04 15314.699999999997 7231.33 15340.799999999997 7234.669999999999 C 15366.899999999998 7237.989999999999 15392.799999999997 7230.94 15413.599999999997 7214.849999999999 C 15429.199999999997 7202.749999999999 15439.199999999997 7185.299999999999 15441.699999999997 7165.7 C 15444.199999999997 7146.099999999999 15438.899999999998 7126.7 15426.799999999997 7111.07 C 15408.499999999998 7087.389999999999 15374.299999999997 7083.0199999999995 15350.599999999997 7101.349999999999 C 15333.799999999997 7114.389999999999 15330.699999999997 7138.7 15343.699999999997 7155.5199999999995 C 15347.999999999996 7161.03 15354.099999999997 7164.549999999999 15360.999999999996 7165.419999999999 C 15367.899999999996 7166.339999999999 15374.699999999997 7164.449999999999 15380.199999999997 7160.19 C 15385.399999999998 7156.219999999999 15391.699999999997 7154.46 15398.199999999997 7155.3099999999995 C 15404.599999999997 7156.129999999999 15410.299999999997 7159.4 15414.299999999997 7164.5199999999995 C 15418.199999999997 7169.639999999999 15419.999999999998 7175.999999999999 15419.099999999997 7182.429999999999 C 15418.299999999997 7188.849999999999 15414.999999999996 7194.57 15409.899999999996 7198.53 C 15394.199999999995 7210.71 15374.699999999995 7216.03 15354.899999999996 7213.5 C 15335.099999999997 7210.98 15317.499999999996 7200.93 15305.399999999996 7185.21 C 15275.999999999996 7147.22 15282.999999999996 7092.41 15320.899999999996 7063.01 C 15342.699999999995 7046.1900000000005 15369.599999999997 7038.84 15396.899999999996 7042.33 C 15424.099999999997 7045.8 15448.399999999996 7059.67 15465.199999999995 7081.4 C 15485.199999999995 7107.259999999999 15493.999999999995 7139.37 15489.799999999996 7171.83 C 15485.699999999995 7204.28 15469.199999999995 7233.17 15443.299999999996 7253.2 C 15412.199999999995 7277.24 15373.699999999995 7287.75 15334.699999999995 7282.7699999999995 C 15295.799999999996 7277.8099999999995 15261.099999999995 7257.959999999999 15236.999999999995 7226.9 C 15207.999999999995 7189.379999999999 15195.299999999994 7142.78 15201.299999999994 7095.67 C 15207.299999999994 7048.59 15231.299999999994 7006.66 15268.799999999994 6977.6 C 15314.399999999994 6942.280000000001 15371.099999999993 6926.870000000001 15428.399999999994 6934.14 C 15485.599999999995 6941.4400000000005 15536.599999999995 6970.6 15571.899999999994 7016.240000000001 C 15615.099999999995 7072.010000000001 15633.999999999995 7141.260000000001 15624.999999999995 7211.2300000000005" stroke-linecap="round" />
</g>
<g transform="matrix(0.07 0 0 -0.07 969.7 -107.98)" id="3DDf6X4jJY0EEk3SWr0Dw"  >
<path style="stroke: none; stroke-width: 1; stroke-dasharray: none; stroke-linecap: butt; stroke-dashoffset: 0; stroke-linejoin: miter; stroke-miterlimit: 4; fill: rgb(118,57,42); fill-rule: nonzero; opacity: 1;" vector-effect="non-scaling-stroke"  transform=" translate(-15541.12, -6295.81)" d="M 15846.5 6061.61 C 15842.9 6066.99 15837.4 6070.639999999999 15831.1 6071.9 C 15824.7 6073.15 15818.300000000001 6071.86 15812.9 6068.25 C 15735.1 6016.15 15641.699999999999 5997.41 15549.9 6015.52 C 15458.1 6033.63 15378.8 6086.4400000000005 15326.699999999999 6164.1900000000005 C 15242.099999999999 6290.360000000001 15275.9 6461.830000000001 15402.099999999999 6546.43 C 15449.8 6578.43 15507.3 6589.92 15563.8 6578.75 C 15620.4 6567.59 15669.099999999999 6535.15 15701.099999999999 6487.41 C 15726.099999999999 6450.22 15734.999999999998 6405.5599999999995 15726.399999999998 6361.65 C 15717.699999999997 6317.73 15692.499999999998 6279.82 15655.299999999997 6254.889999999999 C 15626.599999999997 6235.679999999999 15592.199999999997 6228.78 15558.299999999997 6235.459999999999 C 15524.399999999998 6242.129999999999 15495.199999999997 6261.599999999999 15475.999999999998 6290.2699999999995 C 15461.299999999997 6312.12 15456.099999999999 6338.379999999999 15461.199999999999 6364.2 C 15466.3 6390.0199999999995 15481.099999999999 6412.3099999999995 15502.999999999998 6426.97 C 15519.299999999997 6437.95 15538.999999999998 6441.91 15558.499999999998 6438.070000000001 C 15577.899999999998 6434.240000000001 15594.599999999999 6423.110000000001 15605.599999999999 6406.72 C 15622.3 6381.85 15615.599999999999 6348.030000000001 15590.699999999999 6331.35 C 15582.199999999999 6325.620000000001 15571.9 6323.56 15561.699999999999 6325.56 C 15551.599999999999 6327.56 15542.9 6333.360000000001 15537.099999999999 6341.910000000001 C 15533.3 6347.680000000001 15531.899999999998 6354.610000000001 15533.199999999999 6361.450000000001 C 15534.599999999999 6368.280000000001 15538.499999999998 6374.170000000001 15544.3 6378.040000000001 C 15555.4 6385.490000000001 15558.3 6400.580000000001 15550.9 6411.6900000000005 C 15543.5 6422.790000000001 15528.4 6425.77 15517.3 6418.320000000001 C 15500.8 6407.250000000001 15489.5 6390.39 15485.699999999999 6370.830000000001 C 15481.8 6351.280000000001 15485.8 6331.420000000001 15496.9 6314.900000000001 C 15523.6 6275.02 15577.8 6264.320000000001 15617.699999999999 6291.06 C 15640.499999999998 6306.34 15655.999999999998 6329.6 15661.3 6356.570000000001 C 15666.599999999999 6383.540000000001 15661.099999999999 6410.950000000001 15645.9 6433.7300000000005 C 15608.3 6489.8 15532 6504.84 15476 6467.250000000001 C 15443.3 6445.380000000001 15421.2 6412.120000000001 15413.6 6373.590000000001 C 15406 6335.060000000001 15413.800000000001 6295.870000000001 15435.7 6263.260000000001 C 15462.1 6223.850000000001 15502.300000000001 6197.0700000000015 15548.900000000001 6187.870000000001 C 15595.500000000002 6178.6900000000005 15642.800000000001 6188.180000000001 15682.300000000001 6214.6 C 15730.2 6246.76 15762.800000000001 6295.64 15773.900000000001 6352.27 C 15785.100000000002 6408.89 15773.600000000002 6466.4800000000005 15741.400000000001 6514.410000000001 C 15660.400000000001 6635.330000000001 15496.000000000002 6667.760000000001 15375.100000000002 6586.700000000001 C 15226.700000000003 6487.220000000001 15186.900000000001 6285.570000000001 15286.400000000001 6137.18 C 15345.7 6048.68 15436.000000000002 5988.58 15540.500000000002 5967.950000000001 C 15566.300000000001 5962.860000000001 15592.600000000002 5960.280000000001 15618.600000000002 5960.280000000001 C 15697.300000000003 5960.280000000001 15773.800000000003 5983.68 15839.900000000001 6027.960000000001 L 15839.900000000001 6027.970000000001 C 15851.000000000002 6035.420000000001 15854.000000000002 6050.520000000001 15846.500000000002 6061.6100000000015" stroke-linecap="round" />
</g>
<g transform="matrix(0.07 0 0 -0.07 1004.23 -154.02)" id="bYgEOq4MqjzQ0rxPyr6Gj"  >
<path style="stroke: none; stroke-width: 1; stroke-dasharray: none; stroke-linecap: butt; stroke-dashoffset: 0; stroke-linejoin: miter; stroke-miterlimit: 4; fill: rgb(118,57,42); fill-rule: nonzero; opacity: 1;" vector-effect="non-scaling-stroke"  transform=" translate(-16000, -6907.6)" d="M 16000 7194.38 C 15841.9 7194.38 15713.2 7065.7300000000005 15713.2 6907.6 C 15713.2 6749.47 15841.900000000001 6620.83 16000 6620.83 C 16158.1 6620.83 16286.8 6749.47 16286.8 6907.6 C 16286.8 7065.7300000000005 16158.099999999999 7194.38 16000 7194.38 z M 16000 6563.62 C 15810.3 6563.62 15656 6717.93 15656 6907.6 C 15656 7097.27 15810.3 7251.59 16000 7251.59 C 16189.7 7251.59 16344 7097.27 16344 6907.6 C 16344 6717.93 16189.7 6563.620000000001 16000 6563.620000000001" stroke-linecap="round" />
</g>
<g transform="matrix(0.07 0 0 -0.07 1035 -105.87)" id="nxrlylQRAOLIrykYK-JO1"  >
<path style="stroke: none; stroke-width: 1; stroke-dasharray: none; stroke-linecap: butt; stroke-dashoffset: 0; stroke-linejoin: miter; stroke-miterlimit: 4; fill: rgb(118,57,42); fill-rule: nonzero; opacity: 1;" vector-effect="non-scaling-stroke"  transform=" translate(-16408.88, -6267.75)" d="M 16769.2 6234 C 16766.600000000002 6239.93 16761.8 6244.48 16755.8 6246.82 C 16749.8 6249.16 16743.2 6249.009999999999 16737.2 6246.389999999999 C 16731.3 6243.7699999999995 16726.8 6238.999999999999 16724.4 6232.959999999999 C 16690.7 6145.659999999999 16624.9 6076.739999999999 16539.300000000003 6038.889999999999 C 16453.700000000004 6001.039999999999 16358.500000000004 5998.789999999999 16271.200000000003 6032.549999999999 C 16202.500000000002 6059.11 16148.400000000003 6110.789999999999 16118.600000000002 6178.089999999999 C 16088.900000000001 6245.379999999999 16087.100000000002 6320.239999999999 16113.600000000002 6388.889999999999 C 16134.400000000001 6442.579999999999 16174.900000000001 6484.98 16227.500000000002 6508.259999999999 C 16280.100000000002 6531.549999999999 16338.700000000003 6532.919999999999 16392.4 6512.15 C 16434.100000000002 6496.03 16467 6464.58 16485.2 6423.589999999999 C 16503.3 6382.599999999999 16504.4 6337.069999999999 16488.3 6295.389999999999 C 16462.6 6228.95 16387.6 6195.8099999999995 16321.099999999999 6221.48 C 16270.499999999998 6241.089999999999 16245.199999999999 6298.259999999999 16264.8 6348.929999999999 C 16271.9 6367.349999999999 16285.8 6381.889999999999 16303.9 6389.889999999999 C 16321.9 6397.879999999999 16342.1 6398.339999999999 16360.5 6391.23 C 16374 6386 16384.7 6375.799999999999 16390.6 6362.53 C 16396.399999999998 6349.259999999999 16396.8 6334.5 16391.5 6320.969999999999 C 16387.8 6311.339999999999 16380.6 6303.749999999999 16371.1 6299.579999999999 C 16361.7 6295.399999999999 16351.2 6295.149999999999 16341.6 6298.879999999999 C 16335.1 6301.4 16330 6306.279999999999 16327.2 6312.639999999999 C 16324.400000000001 6318.999999999999 16324.2 6326.079999999999 16326.7 6332.5599999999995 C 16329 6338.589999999999 16328.900000000001 6345.19 16326.300000000001 6351.11 C 16323.7 6357.04 16318.900000000001 6361.589999999999 16312.800000000001 6363.92 C 16306.800000000001 6366.27 16300.2 6366.1 16294.300000000001 6363.49 C 16288.400000000001 6360.87 16283.800000000001 6356.09 16281.500000000002 6350.05 C 16266.700000000003 6311.72 16285.800000000001 6268.4800000000005 16324.100000000002 6253.650000000001 C 16345.800000000003 6245.250000000001 16369.400000000001 6245.81 16390.800000000003 6255.22 C 16412.000000000004 6264.63 16428.4 6281.77 16436.800000000003 6303.4800000000005 C 16446.700000000004 6329.1 16446.000000000004 6357.030000000001 16434.9 6382.13 C 16423.800000000003 6407.25 16403.600000000002 6426.54 16378.000000000002 6436.46 C 16347.500000000002 6448.25 16314.200000000003 6447.47 16284.300000000001 6434.25 C 16254.400000000001 6421.03 16231.400000000001 6396.94 16219.6 6366.43 C 16205.4 6329.85 16206.4 6289.91 16222.300000000001 6253.96 C 16238.2 6218.01 16267.1 6190.41 16303.7 6176.27 C 16347.900000000001 6159.150000000001 16396.2 6160.31 16439.600000000002 6179.530000000001 C 16483.100000000002 6198.750000000001 16516.4 6233.6900000000005 16533.500000000004 6277.900000000001 C 16576.500000000004 6389.01 16521.000000000004 6514.39 16409.900000000005 6557.380000000001 C 16344.300000000005 6582.790000000001 16272.500000000005 6581.050000000001 16207.900000000005 6552.500000000001 C 16143.400000000005 6523.950000000001 16093.800000000005 6472.050000000001 16068.400000000005 6406.380000000001 C 16037.200000000004 6325.660000000001 16039.300000000005 6237.630000000001 16074.300000000005 6158.480000000001 C 16109.300000000005 6079.330000000002 16173.000000000005 6018.540000000002 16253.700000000004 5987.310000000001 C 16300.100000000004 5969.3600000000015 16348.600000000004 5960.250000000001 16397.700000000004 5960.250000000001 C 16453.300000000003 5960.250000000001 16507.500000000004 5971.790000000001 16558.900000000005 5994.530000000001 C 16656.400000000005 6037.620000000001 16731.200000000004 6116.080000000001 16769.700000000004 6215.460000000001 C 16772.000000000004 6221.490000000001 16771.900000000005 6228.090000000001 16769.200000000004 6234.000000000001" stroke-linecap="round" />
</g>
<g transform="matrix(0.07 0 0 -0.07 1058.59 -167.72)" id="as7okEfagb17X2NVYr3py"  >
<path style="stroke: none; stroke-width: 1; stroke-dasharray: none; stroke-linecap: butt; stroke-dashoffset: 0; stroke-linejoin: miter; stroke-miterlimit: 4; fill: rgb(118,57,42); fill-rule: nonzero; opacity: 1;" vector-effect="non-scaling-stroke"  transform=" translate(-16722.22, -7089.66)" d="M 16994.4 7150.61 C 16965.100000000002 7253.04 16897.600000000002 7337.889999999999 16804.300000000003 7389.549999999999 C 16711.200000000004 7441.19 16603.4 7453.469999999999 16501.000000000004 7424.079999999999 C 16494.800000000003 7422.289999999999 16489.600000000002 7418.189999999999 16486.500000000004 7412.519999999999 C 16483.300000000003 7406.859999999999 16482.600000000002 7400.309999999999 16484.400000000005 7394.0999999999985 C 16488.000000000004 7381.289999999998 16501.500000000004 7373.819999999999 16514.400000000005 7377.469999999998 C 16604.300000000007 7403.279999999999 16699.000000000004 7392.499999999998 16780.800000000007 7347.129999999998 C 16862.700000000008 7301.749999999998 16922.000000000007 7227.209999999998 16947.800000000007 7137.249999999998 C 16968.100000000006 7066.519999999999 16959.600000000006 6992.119999999998 16924.000000000007 6927.739999999998 C 16888.300000000007 6863.369999999998 16829.700000000008 6816.759999999998 16759.000000000007 6796.479999999998 C 16644.700000000008 6763.7199999999975 16525.100000000006 6830.0099999999975 16492.300000000007 6944.229999999998 C 16480.000000000007 6987.2599999999975 16485.200000000008 7032.519999999998 16506.900000000005 7071.669999999997 C 16528.600000000006 7110.829999999997 16564.200000000004 7139.179999999998 16607.200000000004 7151.529999999997 C 16675.700000000004 7171.149999999997 16747.400000000005 7131.419999999997 16767.100000000006 7062.949999999997 C 16774.300000000007 7037.659999999997 16771.300000000007 7011.039999999997 16758.500000000007 6988.029999999997 C 16745.800000000007 6964.999999999997 16724.800000000007 6948.329999999997 16699.500000000007 6941.079999999997 C 16660.300000000007 6929.819999999997 16619.300000000007 6952.589999999997 16608.000000000007 6991.779999999997 C 16604.000000000007 7005.729999999997 16605.700000000008 7020.409999999997 16612.700000000008 7033.099999999997 C 16619.800000000007 7045.789999999996 16631.300000000007 7054.979999999997 16645.300000000007 7058.979999999997 C 16655.200000000008 7061.8399999999965 16665.600000000006 7060.6299999999965 16674.600000000006 7055.6299999999965 C 16683.700000000004 7050.639999999997 16690.200000000004 7042.429999999997 16693.000000000007 7032.519999999997 C 16695.000000000007 7025.8399999999965 16694.200000000008 7018.809999999997 16690.800000000007 7012.719999999997 C 16687.400000000005 7006.6299999999965 16681.900000000005 7002.219999999997 16675.200000000008 7000.2999999999965 C 16662.300000000007 6996.599999999997 16654.90000000001 6983.149999999997 16658.60000000001 6970.2999999999965 C 16662.200000000008 6957.499999999996 16675.700000000008 6950.0499999999965 16688.60000000001 6953.679999999997 C 16707.700000000008 6959.169999999996 16723.50000000001 6971.779999999997 16733.200000000008 6989.209999999996 C 16742.800000000007 7006.649999999996 16745.10000000001 7026.769999999997 16739.60000000001 7045.8799999999965 C 16733.200000000008 7068.249999999996 16718.50000000001 7086.779999999996 16698.10000000001 7098.059999999997 C 16677.80000000001 7109.349999999997 16654.200000000008 7112.029999999997 16631.90000000001 7105.599999999997 C 16605.500000000007 7098.019999999997 16583.60000000001 7080.619999999997 16570.30000000001 7056.609999999997 C 16557.00000000001 7032.599999999997 16553.80000000001 7004.819999999997 16561.40000000001 6978.409999999997 C 16570.40000000001 6947.0099999999975 16591.200000000008 6920.979999999997 16619.80000000001 6905.099999999997 C 16648.40000000001 6889.229999999997 16681.50000000001 6885.439999999997 16712.90000000001 6894.459999999996 C 16750.700000000008 6905.289999999996 16781.90000000001 6930.169999999996 16801.000000000007 6964.519999999997 C 16820.000000000007 6998.869999999997 16824.500000000007 7038.569999999997 16813.700000000008 7076.309999999997 C 16786.700000000008 7170.489999999997 16688.10000000001 7225.109999999997 16593.90000000001 7198.139999999997 C 16479.30000000001 7165.289999999996 16412.90000000001 7045.3799999999965 16445.700000000008 6930.859999999997 C 16478.000000000007 6818.249999999997 16582.40000000001 6739.599999999997 16699.60000000001 6739.599999999997 L 16699.60000000001 6739.599999999997 C 16724.200000000008 6739.599999999997 16748.60000000001 6743.059999999997 16772.30000000001 6749.859999999997 L 16772.30000000001 6749.859999999997 C 16855.50000000001 6773.719999999997 16924.40000000001 6828.539999999997 16966.40000000001 6904.239999999997 C 17008.30000000001 6979.929999999997 17018.30000000001 7067.429999999997 16994.40000000001 7150.609999999997" stroke-linecap="round" />
</g>
<g transform="matrix(0.07 0 0 -0.07 1004.23 -153.3)" id="B6_rdptktXRFfLxV1bnmC"  >
<path style="stroke: none; stroke-width: 1; stroke-dasharray: none; stroke-linecap: butt; stroke-dashoffset: 0; stroke-linejoin: miter; stroke-miterlimit: 4; fill: rgb(118,57,42); fill-rule: nonzero; opacity: 1;" vector-effect="non-scaling-stroke"  transform=" translate(-16000, -6898.07)" d="M 16000 7038.2 C 15922.7 7038.2 15859.9 6975.34 15859.9 6898.07 C 15859.9 6820.8099999999995 15922.699999999999 6757.94 16000 6757.94 C 16077.3 6757.94 16140.1 6820.8099999999995 16140.1 6898.07 C 16140.1 6975.34 16077.300000000001 7038.2 16000 7038.2" stroke-linecap="round" />
</g>
</svg>